# xmcd
#
# Track frame offsets: 
#        150
#        14995
#        37012
#        51862
#        71927
#        88450
#        101212
#        116012
#        132485
#        149982
#        167670
#        180347
#        206235
#
# Disc length: 2979 seconds
#
# Revision: 3
# Processed by: cddbd v1.5.2PL0 Copyright (c) Steve Scherf et al.
# Submitted via: ExactAudioCopy v0.99pb4
#
DISCID=db0ba10d
DTITLE=Guy Davis - Call Down The Thunder
DYEAR=1996
DGENRE=Blues
TTITLE0=Georgia Jelly Roll
TTITLE1=I Got The Power
TTITLE2=When You Got A Good Friend
TTITLE3=Long Train
TTITLE4=Run Sinner Run
TTITLE5=Mama's Gonna Fix It Right
TTITLE6=Jelly Bone Jelly
TTITLE7=See Me When You Can
TTITLE8=Gee The Mule
TTITLE9=Minglewood Blues
TTITLE10=Thanksgiving Day
TTITLE11=The Road Is Calling
TTITLE12=New Shoes
EXTD=
EXTT0=
EXTT1=
EXTT2=
EXTT3=
EXTT4=
EXTT5=
EXTT6=
EXTT7=
EXTT8=
EXTT9=
EXTT10=
EXTT11=
EXTT12=
PLAYORDER=
